<?xml version="1.0" standalone="no"?>
<!DOCTYPE svg PUBLIC "-//W3C//DTD SVG 20010904//EN"
 "http://www.w3.org/TR/2001/REC-SVG-20010904/DTD/svg10.dtd">
<svg version="1.0" xmlns="http://www.w3.org/2000/svg"
 width="1771.000000pt" height="1771.000000pt" viewBox="0 0 1771.000000 1771.000000"
 preserveAspectRatio="xMidYMid meet">

<g transform="translate(0.000000,1771.000000) scale(0.100000,-0.100000)"
fill="#000000" stroke="none">
<path d="M8127 12033 c-4 -3 -7 -988 -7 -2187 l-1 -2181 -38 95 c-116 284
-133 328 -147 357 -7 17 -14 34 -14 37 0 3 -9 25 -19 49 -11 23 -45 105 -76
182 -66 163 -103 253 -175 425 -28 69 -58 142 -65 163 -8 20 -21 52 -29 70 -8
17 -40 95 -71 172 -54 133 -100 243 -150 365 -28 67 -97 235 -159 390 -26 63
-54 129 -62 147 -7 17 -14 34 -14 37 0 3 -9 25 -20 49 -10 23 -40 94 -66 157
-58 144 -122 300 -167 410 -19 47 -51 126 -71 175 -21 50 -41 99 -46 110 -5
11 -38 92 -74 180 -36 88 -90 221 -121 295 -31 74 -71 173 -90 220 -19 47 -52
128 -74 180 l-39 95 -462 0 -461 0 -19 -45 c-10 -25 -30 -74 -44 -110 -13 -36
-36 -95 -50 -132 -15 -38 -38 -98 -52 -135 -35 -89 -67 -173 -97 -253 -14 -36
-48 -126 -77 -200 -28 -74 -63 -163 -76 -198 -13 -34 -35 -91 -49 -127 -13
-36 -36 -94 -50 -130 -13 -36 -36 -94 -50 -130 -13 -36 -36 -95 -51 -133 -14
-37 -36 -95 -50 -130 -13 -34 -35 -90 -48 -125 -52 -133 -149 -384 -190 -492
-15 -38 -33 -86 -41 -105 -7 -19 -27 -71 -43 -115 -33 -87 -80 -209 -167 -435
-61 -156 -90 -233 -130 -335 -13 -36 -36 -94 -50 -130 -13 -36 -36 -94 -50
-130 -13 -36 -36 -94 -50 -130 -13 -36 -36 -95 -51 -133 -14 -37 -32 -81 -40
-99 -8 -17 -14 -34 -14 -38 0 -4 -20 -57 -44 -118 -25 -62 -92 -238 -151 -392
-59 -154 -117 -308 -131 -343 -13 -34 -35 -92 -50 -130 -14 -37 -31 -80 -39
-97 -7 -16 -16 -41 -20 -55 -4 -14 -13 -38 -21 -55 -19 -43 -84 -214 -84 -220
0 -4 -9 -25 -19 -48 -11 -24 -23 -55 -26 -70 -4 -15 -11 -27 -15 -27 -5 0 -25
53 -45 118 -97 313 -198 603 -732 2092 -316 883 -712 1990 -880 2460 -168 470
-310 861 -316 868 -7 9 -111 12 -462 12 -249 0 -455 -3 -457 -6 -6 -5 19 -77
46 -139 8 -16 17 -41 21 -55 4 -14 13 -38 20 -55 14 -30 32 -77 100 -255 20
-52 51 -133 70 -180 18 -47 45 -114 59 -150 106 -278 258 -668 394 -1015 39
-99 87 -223 107 -275 66 -172 86 -224 120 -310 19 -47 50 -128 70 -180 60
-157 85 -221 120 -310 19 -47 50 -128 70 -180 71 -185 87 -225 101 -257 8 -17
14 -33 14 -36 0 -3 25 -70 56 -149 30 -79 67 -172 80 -208 14 -36 41 -103 59
-150 19 -47 50 -128 70 -180 20 -52 67 -174 105 -270 38 -96 90 -229 115 -295
26 -66 57 -147 70 -180 13 -33 45 -114 70 -180 26 -66 58 -148 71 -182 13 -35
35 -91 48 -125 14 -35 46 -117 71 -183 80 -206 149 -384 191 -493 14 -37 41
-105 59 -152 19 -47 50 -128 70 -180 19 -52 40 -105 45 -118 l10 -22 477 2
477 3 103 285 c57 157 114 314 127 350 13 36 76 211 141 390 65 179 128 352
140 385 12 33 61 169 109 303 l88 242 1353 0 1352 0 16 -37 c9 -21 28 -69 43
-108 45 -118 99 -259 174 -455 95 -246 152 -394 191 -495 54 -141 143 -372
189 -490 21 -55 55 -143 75 -195 20 -52 44 -114 53 -137 l17 -43 2502 0 2503
0 2 2530 3 2529 135 -202 c74 -111 137 -204 140 -207 3 -3 25 -36 50 -75 25
-38 47 -72 50 -75 6 -6 753 -1122 790 -1180 14 -22 171 -257 349 -522 178
-266 474 -706 656 -978 182 -272 511 -763 730 -1090 220 -327 419 -625 444
-662 l44 -68 438 0 439 0 0 3235 0 3235 -407 -2 -408 -3 -3 -2533 -2 -2534
-160 239 c-88 131 -164 245 -170 253 -5 8 -22 33 -37 55 -14 22 -177 265 -361
540 -185 275 -455 678 -600 895 -146 217 -388 577 -537 800 -149 223 -437 653
-640 955 -203 303 -487 726 -631 940 l-261 390 -439 0 -439 0 -3 -2817 -2
-2818 -1620 0 -1620 0 -2 2823 -3 2822 -401 3 c-220 1 -403 -1 -407 -5z
m-2159 -1071 c35 -110 243 -696 330 -927 99 -263 246 -652 279 -740 19 -49 39
-101 43 -115 5 -14 22 -59 38 -100 51 -132 123 -323 147 -390 13 -36 38 -101
55 -145 17 -44 37 -98 45 -120 7 -22 27 -76 44 -119 17 -44 29 -81 27 -83 -1
-2 -491 -2 -1087 -1 l-1085 3 63 160 c35 88 81 205 102 260 22 55 56 143 76
195 49 128 184 470 195 495 5 11 25 63 45 115 20 52 70 181 112 285 41 105 86
219 99 255 14 36 29 74 34 85 5 11 20 49 34 85 13 36 54 140 90 233 36 92 96
242 132 335 36 92 77 196 90 232 38 99 43 110 51 110 5 0 23 -49 41 -108z"/>
<path d="M10157 12033 c-4 -3 -7 -1029 -7 -2280 l0 -2273 900 0 900 0 -2 343
-3 342 -543 3 -542 2 2 648 3 647 553 3 552 2 0 345 0 345 -540 0 -540 0 0
625 0 625 540 0 540 0 0 315 0 315 -903 0 c-497 0 -907 -3 -910 -7z"/>
<path d="M9170 9295 l0 -2725 1405 0 1405 0 0 355 0 355 -1025 0 -1025 0 0
2370 0 2370 -380 0 -380 0 0 -2725z"/>
</g>
</svg>
