<svg width="512" height="512" viewBox="0 0 512 512" fill="none" xmlns="http://www.w3.org/2000/svg">
<g clip-path="url(#clip0_370_3256)">
<rect width="512" height="512" fill="#F0F2F5"/>
<path d="M217.571 435.439L230.935 417.134L218.076 399.278H230.654L237.28 408.767L243.962 399.278H256.539L243.681 417.134L257.045 435.439H244.298L237.28 425.612L230.317 435.439H217.571Z" fill="#095697"/>
<path d="M257.067 435.439V399.278H267.623V435.439H257.067Z" fill="#095697"/>
<path d="M269.887 435.439V399.278H280.443V435.439H269.887Z" fill="#095697"/>
<path d="M282.707 435.439V399.278H293.264V435.439H282.707Z" fill="#095697"/>
<path d="M225.084 422.856V418.369C225.084 414.925 224.279 412.38 222.669 410.732C221.06 409.085 218.495 408.262 214.977 408.262C213.142 408.262 211.383 408.58 209.699 409.216C208.052 409.815 206.685 410.527 205.6 411.35L205.319 408.823H198.3V435.439H205.88V416.572C206.667 415.786 207.64 415.131 208.8 414.607C209.998 414.083 211.177 413.821 212.338 413.821C214.322 413.821 215.669 414.195 216.38 414.944C217.129 415.692 217.503 416.965 217.503 418.762V433.239L225.084 422.856Z" fill="#0A0C0F"/>
<path d="M154.753 436C148.689 436 144.084 434.409 140.94 431.227C137.796 428.045 136.223 423.628 136.223 417.976C136.223 411.986 137.814 407.289 140.996 403.882C144.178 400.438 148.913 398.716 155.202 398.716C157.373 398.716 159.339 398.847 161.098 399.109C162.857 399.334 164.523 399.708 166.095 400.232V406.746C164.523 406.184 162.857 405.791 161.098 405.567C159.376 405.305 157.598 405.174 155.764 405.174C151.459 405.174 148.408 406.24 146.611 408.374C144.814 410.47 143.916 413.671 143.916 417.976C143.916 425.725 147.566 429.599 154.865 429.599C156.138 429.599 157.373 429.505 158.571 429.318C159.807 429.094 160.892 428.813 161.828 428.476V420.053H153.405V415.224H168.229V432.912C166.994 433.698 165.272 434.409 163.063 435.045C160.855 435.682 158.085 436 154.753 436Z" fill="#0A0C0F"/>
<path fill-rule="evenodd" clip-rule="evenodd" d="M184.544 436C179.939 436 176.29 434.858 173.594 432.575C170.899 430.254 169.552 426.754 169.552 422.075C169.552 417.845 170.675 414.495 172.921 412.024C175.204 409.516 178.592 408.262 183.084 408.262C187.202 408.262 190.346 409.347 192.517 411.519C194.726 413.652 195.83 416.46 195.83 419.941V424.77H176.57C176.982 426.904 177.955 428.364 179.49 429.15C181.062 429.936 183.271 430.329 186.116 430.329C187.538 430.329 188.98 430.198 190.44 429.936C191.937 429.674 193.21 429.337 194.258 428.925V434.316C193.022 434.877 191.581 435.289 189.934 435.551C188.287 435.85 186.49 436 184.544 436ZM176.57 420.11H189.204V418.65C189.204 417.115 188.755 415.917 187.857 415.056C186.958 414.158 185.442 413.708 183.308 413.708C180.8 413.708 179.041 414.214 178.03 415.224C177.057 416.235 176.57 417.864 176.57 420.11Z" fill="#0A0C0F"/>
<path d="M138.587 388.832V353.491H148.904V366.662H161.087V353.491H171.404V388.832H161.087V375.662H148.904V388.832H138.587ZM173.625 388.832V353.491H183.667L192.448 371.436L201.173 353.491H211.161V388.832H200.844V371.162L195.192 382.796H189.649L183.942 371.162V388.832H173.625ZM213.379 388.832V353.491H223.695V388.832H213.379ZM225.908 388.832V353.491H252.468V361.174H236.225V367.265H250.383V375.058H236.225V388.832H225.908ZM277.177 389.381C272.311 389.381 268.452 388.21 265.598 385.869C262.781 383.491 261.373 380.052 261.373 375.552V353.491H268.781V375.003C268.781 377.71 269.513 379.741 270.976 381.094C272.44 382.411 274.507 383.07 277.177 383.07C279.848 383.07 281.897 382.411 283.323 381.094C284.787 379.741 285.519 377.71 285.519 375.003V353.491H292.927V375.552C292.927 380.052 291.518 383.491 288.701 385.869C285.884 388.21 282.043 389.381 277.177 389.381ZM296.149 388.832V353.491H303.612L313.984 374.729L324.356 353.491H331.764V388.832H324.356V365.839L316.124 382.741H311.844L303.557 365.839V388.832H296.149ZM335.259 388.832V353.491H341.68L358.417 377.033V353.491H365.826V388.832H359.405L342.668 365.29V388.832H335.259Z" fill="#005696"/>
<g clip-path="url(#clip1_370_3256)">
<path d="M214.003 163.742C191.728 163.744 170.366 172.56 154.615 188.252C138.865 203.943 130.015 225.224 130.013 247.415H214.003C236.279 247.415 257.642 238.599 273.394 222.908C289.145 207.216 297.994 185.933 297.994 163.742H214.003Z" fill="#005696"/>
<path d="M130.013 331.087V247.415H214.003C214.003 269.606 205.154 290.889 189.403 306.58C173.652 322.272 152.289 331.087 130.013 331.087Z" fill="#149ED8"/>
<path d="M214.003 331.087V247.415H297.994C297.994 269.606 289.145 290.889 273.394 306.58C257.642 322.272 236.279 331.087 214.003 331.087Z" fill="#149ED8"/>
<path d="M297.994 163.742V247.415H214.003C214.003 225.223 222.852 203.941 238.604 188.249C254.355 172.557 275.718 163.742 297.994 163.742Z" fill="#BF1E2D"/>
<path d="M297.994 247.415V163.742H381.985C381.985 185.933 373.136 207.216 357.384 222.907C341.633 238.599 320.27 247.415 297.994 247.415Z" fill="#E46225"/>
<path d="M297.994 75.8853V159.558H214.003C214.003 137.367 222.852 116.084 238.604 100.392C254.355 84.7008 275.718 75.8853 297.994 75.8853Z" fill="#005696"/>
<path d="M297.994 159.558V75.8851H381.985C381.985 98.0766 373.136 119.359 357.384 135.051C341.633 150.742 320.27 159.558 297.994 159.558Z" fill="#149ED8"/>
<path d="M172.008 159.558C195.201 159.558 214.003 140.827 214.003 117.722C214.003 94.6161 195.201 75.8853 172.008 75.8853C148.815 75.8853 130.013 94.6161 130.013 117.722C130.013 140.827 148.815 159.558 172.008 159.558Z" fill="#005696"/>
</g>
</g>
<defs>
<clipPath id="clip0_370_3256">
<rect width="512" height="512" fill="white"/>
</clipPath>
<clipPath id="clip1_370_3256">
<rect width="251.972" height="255.202" fill="white" transform="translate(130.013 75.8853)"/>
</clipPath>
</defs>
</svg>
